<?xml version="1.0" encoding="utf-8"?>
<!-- Generator: Adobe Illustrator 25.3.0, SVG Export Plug-In . SVG Version: 6.00 Build 0)  -->
<svg version="1.1" id="Ebene_1" xmlns="http://www.w3.org/2000/svg" xmlns:xlink="http://www.w3.org/1999/xlink" x="0px" y="0px"
	 viewBox="0 0 38 37.8" style="enable-background:new 0 0 38 37.8;" xml:space="preserve">
<style type="text/css">
	.st0{fill:#FFFFFF;}
</style>
<g>
	<g>
		<path class="st0" d="M18.7,16.5c-3.5-0.1-5.3-2.8-5.3-5.3c0-2.6,1.8-5.2,5.3-5.3h0.1c3.4,0.1,5.3,2.8,5.3,5.3
			C24,13.8,22.2,16.4,18.7,16.5z M18.7,7.9c-2.3,0.1-3.3,1.7-3.3,3.3c0,1.6,1,3.2,3.3,3.3c2.2-0.1,3.3-1.7,3.3-3.3
			C22,9.6,21,8,18.7,7.9z"/>
	</g>
	<g>
		<path class="st0" d="M9.2,22.1c-1.7,0-3.2-1-4-2.5c-0.8-1.6-0.7-3.4,0.3-4.8c1.1-1.6,3.1-2.3,5.1-1.7c2,0.6,3.2,2.3,3.2,4.4
			C13.9,20,11.8,22.1,9.2,22.1z M9.2,14.9c-0.7,0-1.5,0.3-2,1.1c-0.6,0.8-0.7,1.8-0.2,2.7c0.4,0.7,1.2,1.5,2.3,1.4
			c1.5,0,2.6-1.2,2.6-2.6l0,0c0-1.4-0.9-2.1-1.8-2.4C9.8,14.9,9.5,14.9,9.2,14.9z"/>
	</g>
	<g>
		<path class="st0" d="M2.2,27.7C2,25.8,2.7,23.9,4,22.4C5.4,20.9,7.4,20,9.4,20v2c-1.4,0-2.9,0.6-3.9,1.8c-1,1.1-1.4,2.4-1.3,3.7
			L2.2,27.7z"/>
	</g>
	<g>
		<path class="st0" d="M28.6,21.7L28.6,21.7c-2.6,0-4.7-2.1-4.7-4.6l0,0c0-1.2,0.5-2.4,1.4-3.2c0.9-0.9,2-1.3,3.2-1.3l0,0
			c2.5,0.1,4.5,2.1,4.6,4.6c0,1.2-0.5,2.4-1.3,3.3C31,21.2,29.8,21.7,28.6,21.7z M26,17.1c0,1.4,1.2,2.6,2.6,2.6
			c0.6,0,1.3-0.3,1.8-0.8s0.8-1.2,0.8-1.8c0-1.4-1.2-2.6-2.6-2.6l0,0c-0.7,0-1.3,0.3-1.8,0.8C26.3,15.7,26,16.4,26,17.1z"/>
	</g>
	<g>
		<path class="st0" d="M26.3,25.7c-0.5,0-1-0.4-1-1c-0.2-5.6-3.4-8.2-6.4-8.2c-2.9,0-6.2,2.6-6.4,8.2c0,0.6-0.5,1-1,1
			c-0.6,0-1-0.5-1-1c0.2-7,4.5-10.1,8.4-10.1l0,0c3.9,0,8.2,3.2,8.4,10.1C27.3,25.2,26.9,25.7,26.3,25.7L26.3,25.7z"/>
	</g>
	<g>
		<path class="st0" d="M19,37.8c-2.4,0-4.8-0.4-7.1-1.3c-4.5-1.7-8.1-5.1-10.1-9.4c-0.2-0.3-0.3-0.7-0.4-1.1v-0.1
			C0.6,23.8,0.1,21.5,0,19C0,8.5,8.5,0,19,0s19,8.5,19,19l0,0c-0.1,2.5-0.6,4.9-1.4,7c-0.1,0.4-0.3,0.7-0.4,1.1
			c-2,4.4-5.5,7.7-10.1,9.4C23.8,37.4,21.4,37.8,19,37.8z M3.4,25.5c0.1,0.3,0.2,0.5,0.3,0.7c1.8,3.9,4.9,6.9,9,8.4
			c4,1.5,8.7,1.5,12.7,0s7.2-4.5,9-8.4c0.1-0.3,0.3-0.6,0.4-1c0.7-1.9,1.2-4.1,1.3-6.4c0-9.3-7.6-17-17-17s-17,7.6-17,17
			c0.1,2.3,0.5,4.4,1.3,6.4V25.5z"/>
	</g>
	<g>
		<path class="st0" d="M36,27.4l-2-0.2c0.1-1.3-0.3-2.7-1.3-3.7c-1-1.1-2.5-1.8-3.9-1.8v-2h0.1c1.9,0,3.9,0.9,5.3,2.4
			C35.5,23.6,36.2,25.5,36,27.4z"/>
	</g>
</g>
</svg>
