<?xml version="1.0" encoding="utf-8"?>
<!-- Generator: Adobe Illustrator 25.3.1, SVG Export Plug-In . SVG Version: 6.00 Build 0)  -->
<svg version="1.1" xmlns="http://www.w3.org/2000/svg" xmlns:xlink="http://www.w3.org/1999/xlink" x="0px" y="0px"
	 viewBox="0 0 498 457.1" style="enable-background:new 0 0 498 457.1;" xml:space="preserve">
<style type="text/css">
	.st0{fill:#5BAAD6;}
	.st1{fill:#478099;}
	.st2{fill:#4983B2;}
	.st3{fill:#478499;}
	.st4{fill:#77B6E5;}
	.st5{fill:#E3FAFF;}
	.st6{fill:#15A6CC;}
	.st7{fill:#999999;}
	.st8{fill:#FCFCFC;}
	.st9{fill:#474747;}
	.st10{fill:#EAEAEA;}
</style>
<g id="background">
</g>
<g id="object">
	<g id="XMLID_130_">
		
			<ellipse id="XMLID_119_" transform="matrix(0.7071 -0.7071 0.7071 0.7071 85.2107 328.0317)" class="st0" cx="438.6" cy="61.2" rx="59.4" ry="59.4"/>
		<circle id="XMLID_54_" class="st1" cx="415" cy="37.7" r="8.1"/>
		<path id="XMLID_53_" class="st2" d="M447.9,87.6h-18.6c-8.3,0-15-6.7-15-15V54h48.6v18.6C462.9,80.9,456.2,87.6,447.9,87.6z"/>
		<g id="XMLID_132_">
			<path id="XMLID_52_" class="st3" d="M467.9,46.3c-0.4,0-0.9-0.1-1.3-0.3l-11.5-5.7c-1-0.5-1.6-1.5-1.6-2.6c0-1.1,0.6-2.1,1.6-2.6
				l11.5-5.7c1.4-0.7,3.2-0.1,3.9,1.3c0.7,1.4,0.1,3.2-1.3,3.9l-6.3,3.1l6.3,3.1c1.4,0.7,2,2.4,1.3,3.9
				C470,45.7,468.9,46.3,467.9,46.3z"/>
		</g>
	</g>
	<g>
		<path class="st4" d="M271.4,185.4H16c-8.8,0-16-7.2-16-16V55.8c0-8.8,7.2-16,16-16h255.4c8.8,0,16,7.2,16,16v113.6
			C287.3,178.2,280.2,185.4,271.4,185.4z"/>
		<g>
			<g>
				<path class="st5" d="M117.7,132.1h-81c-2.2,0-4-1.8-4-4v-5c0-2.2,1.8-4,4-4h81c2.2,0,4,1.8,4,4v5
					C121.7,130.3,119.9,132.1,117.7,132.1z"/>
				<path class="st5" d="M250.3,132.1H135.9c-2.2,0-4-1.8-4-4v-5c0-2.2,1.8-4,4-4h114.5c2.2,0,4,1.8,4,4v5
					C254.4,130.3,252.6,132.1,250.3,132.1z"/>
			</g>
			<g>
				<path class="st5" d="M102.8,156H36.7c-2.2,0-4-1.8-4-4v-5c0-2.2,1.8-4,4-4h66.1c2.2,0,4,1.8,4,4v5
					C106.8,154.2,105,156,102.8,156z"/>
				<path class="st5" d="M205.8,156h-84.8c-2.2,0-4-1.8-4-4v-5c0-2.2,1.8-4,4-4h84.8c2.2,0,4,1.8,4,4v5
					C209.8,154.2,208,156,205.8,156z"/>
			</g>
			<g>
				<path class="st5" d="M76.9,108.1H36.7c-2.2,0-4-1.8-4-4v-5c0-2.2,1.8-4,4-4h40.2c2.2,0,4,1.8,4,4v5
					C80.9,106.3,79.1,108.1,76.9,108.1z"/>
				<path class="st5" d="M153.4,108.1H95.2c-2.2,0-4-1.8-4-4v-5c0-2.2,1.8-4,4-4h58.3c2.2,0,4,1.8,4,4v5
					C157.4,106.3,155.6,108.1,153.4,108.1z"/>
			</g>
		</g>
		<g>
			<circle class="st6" cx="77.3" cy="39.8" r="39.8"/>
			<circle class="st5" cx="77.3" cy="30.3" r="17.9"/>
			<path class="st5" d="M77.3,51.9c-12.1,0-23.1,4.8-31.2,12.5c7.3,9.2,18.6,15.1,31.2,15.1s23.9-5.9,31.2-15.1
				C100.4,56.6,89.4,51.9,77.3,51.9z"/>
		</g>
		<path class="st6" d="M244.7,167.4v60.9c0,5.4-6.5,8.1-10.3,4.3l-63-63L244.7,167.4z"/>
	</g>
	<g>
		<path class="st7" d="M204.7,394.7h255.4c8.8,0,16-7.2,16-16V265.1c0-8.8-7.2-16-16-16H204.7c-8.8,0-16,7.2-16,16v113.6
			C188.7,387.6,195.9,394.7,204.7,394.7z"/>
		<g>
			<g>
				<path class="st8" d="M306.7,341.4h-81c-2.2,0-4-1.8-4-4v-5c0-2.2,1.8-4,4-4h81c2.2,0,4,1.8,4,4v5
					C310.7,339.6,308.9,341.4,306.7,341.4z"/>
				<path class="st8" d="M439.4,341.4H324.9c-2.2,0-4-1.8-4-4v-5c0-2.2,1.8-4,4-4h114.5c2.2,0,4,1.8,4,4v5
					C443.4,339.6,441.6,341.4,439.4,341.4z"/>
			</g>
			<g>
				<path class="st8" d="M291.9,365.4h-66.1c-2.2,0-4-1.8-4-4v-5c0-2.2,1.8-4,4-4h66.1c2.2,0,4,1.8,4,4v5
					C295.9,363.6,294.1,365.4,291.9,365.4z"/>
				<path class="st8" d="M394.8,365.4h-84.8c-2.2,0-4-1.8-4-4v-5c0-2.2,1.8-4,4-4h84.8c2.2,0,4,1.8,4,4v5
					C398.9,363.6,397.1,365.4,394.8,365.4z"/>
			</g>
			<g>
				<path class="st8" d="M266,317.5h-40.2c-2.2,0-4-1.8-4-4v-5c0-2.2,1.8-4,4-4H266c2.2,0,4,1.8,4,4v5
					C270,315.7,268.2,317.5,266,317.5z"/>
				<path class="st8" d="M342.4,317.5h-58.3c-2.2,0-4-1.8-4-4v-5c0-2.2,1.8-4,4-4h58.3c2.2,0,4,1.8,4,4v5
					C346.5,315.7,344.7,317.5,342.4,317.5z"/>
			</g>
		</g>
		<g>
			<circle class="st9" cx="398.8" cy="249.1" r="39.8"/>
			<circle class="st10" cx="398.8" cy="239.7" r="17.9"/>
			<path class="st10" d="M398.8,261.2c12.1,0,23.1,4.8,31.2,12.5c-7.3,9.2-18.6,15.1-31.2,15.1c-12.7,0-23.9-5.9-31.2-15.1
				C375.7,266,386.7,261.2,398.8,261.2z"/>
		</g>
		<path class="st9" d="M231.4,376.7v60.9c0,5.4,6.5,8.1,10.3,4.3l63-63L231.4,376.7z"/>
	</g>
</g>
</svg>
