<?xml version="1.0" encoding="utf-8"?>
<!-- Generator: Adobe Illustrator 25.2.3, SVG Export Plug-In . SVG Version: 6.00 Build 0)  -->
<svg version="1.1" id="Ebene_1" xmlns="http://www.w3.org/2000/svg" xmlns:xlink="http://www.w3.org/1999/xlink" x="0px" y="0px"
	 viewBox="0 0 172.8 158" style="enable-background:new 0 0 172.8 158;" xml:space="preserve">
<style type="text/css">
	.st0{fill:none;stroke:#000000;stroke-width:5;stroke-miterlimit:10;}
</style>
<g>
	<g>
		<g>
			<path d="M22.1,114.9h-7.9v-2h18.1v2h-7.9v20.4H22L22.1,114.9L22.1,114.9z"/>
			<path d="M50.6,127.6h-14c0.3,3.5,2.9,5.9,6.6,5.9c2,0,3.9-0.7,5.2-2.2l1.3,1.5c-1.5,1.8-3.8,2.8-6.5,2.8c-5.2,0-8.8-3.6-8.8-8.6
				c0-5,3.5-8.5,8.2-8.5s8.2,3.5,8.2,8.5C50.7,127,50.6,127.3,50.6,127.6z M36.6,125.9h11.9c-0.3-3.3-2.7-5.6-6-5.6
				C39.3,120.3,36.9,122.6,36.6,125.9z"/>
			<path d="M68.3,124.8v10.4h-2.2v-2.6c-1,1.7-3,2.8-5.8,2.8c-3.8,0-6.1-2-6.1-4.9c0-2.6,1.7-4.8,6.5-4.8H66v-1
				c0-2.9-1.6-4.4-4.8-4.4c-2.2,0-4.2,0.8-5.6,2l-1-1.7c1.7-1.4,4.2-2.3,6.8-2.3C65.9,118.3,68.3,120.5,68.3,124.8z M66.1,130.2
				v-2.8h-5.3c-3.3,0-4.3,1.3-4.3,3c0,2,1.6,3.2,4.3,3.2C63.3,133.6,65.2,132.4,66.1,130.2z"/>
			<path d="M102.6,125.5v9.8h-2.3v-9.5c0-3.6-1.8-5.4-4.8-5.4c-3.5,0-5.6,2.2-5.6,6.1v8.8h-2.3v-9.5c0-3.6-1.8-5.4-4.9-5.4
				c-3.4,0-5.6,2.2-5.6,6.1v8.8h-2.3v-16.8H77v3.1c1.2-2,3.4-3.2,6.2-3.2c2.8,0,5,1.2,6,3.6c1.2-2.2,3.6-3.6,6.7-3.6
				C99.9,118.3,102.6,120.7,102.6,125.5z"/>
			<path d="M133.2,123.3c0,2.8-0.5,5.1-1.6,6.9c-1,1.9-2.5,3.3-4.4,4.2c-1.9,1-4.1,1.4-6.6,1.4s-4.7-0.5-6.6-1.4s-3.3-2.4-4.3-4.2
				c-1-1.9-1.6-4.2-1.6-6.9v-22.1l0.3-0.3h1.9c1,0,1.8,0.3,2.2,0.8c0.4,0.5,0.6,1.3,0.6,2.4v19.2c0,2.8,0.6,4.9,1.9,6.3
				s3.1,2.2,5.6,2.2s4.3-0.7,5.6-2.2c1.3-1.5,1.9-3.6,1.9-6.3v-22.2c0.3-0.1,0.7-0.1,1.2-0.1c0.4,0,0.9-0.1,1.2-0.1
				c0.4,0,0.8,0,1.3,0.1c0.5,0,0.9,0.1,1.3,0.1"/>
			<path d="M161.8,112c0,2.4-0.5,4.5-1.5,6.1s-2.3,2.9-4,3.7s-3.7,1.3-5.9,1.3h-7.5v-3.9c0.6,0,1.3-0.1,2.3-0.1s2,0,2.9,0
				c1,0,1.7,0,2.2,0c1.7,0,3-0.4,3.9-1.1s1.5-1.7,1.9-2.8c0.3-1.1,0.5-2.1,0.5-3.2s-0.2-2.1-0.5-3.2s-1-2-1.9-2.7s-2.2-1.1-3.9-1.1
				c-0.7,0-1.6,0-2.6,0s-1.9,0-2.8,0v30.4c-0.4,0.1-0.8,0.1-1.2,0.1s-0.9,0.1-1.3,0.1c-0.4,0-0.8,0-1.2-0.1c-0.4,0-0.9-0.1-1.2-0.1
				v-33.9l0.3-0.3c1.9,0,3.6-0.1,5.2-0.1c1.6,0,3.3-0.1,4.9-0.1c2.2,0,4.2,0.4,5.9,1.2c1.7,0.8,3.1,2,4,3.7
				C161.3,107.5,161.8,109.5,161.8,112z"/>
		</g>
	</g>
	<circle class="st0" cx="88.1" cy="39" r="19.9"/>
	<path class="st0" d="M46.2,101.1c0-23.3,18.9-42.2,42.2-42.2s42.2,18.9,42.2,42.2"/>
	<g>
		<circle class="st0" cx="45.1" cy="52.6" r="15"/>
		<path class="st0" d="M16.3,94c0-14.6,12.9-26.4,28.8-26.4"/>
	</g>
	<g>
		<circle class="st0" cx="131" cy="52.4" r="15"/>
		<path class="st0" d="M159.8,93.9c0-14.6-12.9-26.4-28.8-26.4"/>
	</g>
</g>
</svg>
